<?xml version="1.0" encoding="utf-8"?>
<!-- Generator: Adobe Illustrator 24.3.0, SVG Export Plug-In . SVG Version: 6.00 Build 0)  -->
<svg version="1.1" id="图层_1" xmlns="http://www.w3.org/2000/svg" xmlns:xlink="http://www.w3.org/1999/xlink" x="0px" y="0px"
	 viewBox="0 0 200 200" style="enable-background:new 0 0 200 200;" xml:space="preserve">
<style type="text/css">
	.st0{fill:#666666;}
	.st1{fill:#FFFFFF;}
</style>
<g>
	<path class="st0" d="M100,0C72.3,0,48.8,9.9,29.1,29.3C9.6,48.8,0,72.3,0,100s9.6,51.2,29.1,70.7C48.8,190.4,72.3,200,100,200
		s51.2-9.6,70.7-29.3c19.5-19.5,29.3-42.9,29.3-70.7s-9.9-51.2-29.3-70.7S127.7,0,100,0z"/>
</g>
<g>
	<path class="st1" d="M100,84L59.7,43.7L43.5,60l40.3,40.3L43.5,140L60,156.5l40-40.3l40,40.3l16.5-16.3l-40.3-40l40-39.7l-16-16.8
		L100,84z"/>
</g>
</svg>
