<?xml version="1.0" encoding="utf-8"?>
<!-- Generator: Adobe Illustrator 24.3.0, SVG Export Plug-In . SVG Version: 6.00 Build 0)  -->
<svg version="1.1" id="图层_1" xmlns="http://www.w3.org/2000/svg" xmlns:xlink="http://www.w3.org/1999/xlink" x="0px" y="0px"
	 viewBox="0 0 600 200" style="enable-background:new 0 0 600 200;" xml:space="preserve">
<style type="text/css">
	.st0{fill:#4A4A4A;}
	.st1{fill:#FFFFFF;}
	.st2{fill:#878787;}
</style>
<g>
	<path class="st0" d="M600,30c0-20-10-30-30-30H305.8v200H570c20,0,30-10,30-30V30z M474.3,39.2c0.8-1.1,2-1.6,3.4-1.7
		c1.4-0.1,2.6,0.3,3.6,1.3l27.5,24.5c1.1,0.9,1.6,2,1.6,3.4c0.1,1.4-0.3,2.6-1.2,3.6l-66.5,74.6c-0.6,0.5-1.1,1-1.8,1.2l-38.5,16
		c-1.3,0.5-2.5,0.5-3.7,0.1c-1.3-0.5-2.1-1.2-2.8-2.4c-0.5-1.2-0.6-2.3-0.3-3.6l11-41c0.3-0.7,0.6-1.5,1.2-2L474.3,39.2z"/>
	<path class="st1" d="M477.7,37.5c-1.4,0.1-2.6,0.6-3.4,1.7l-66.5,74c-0.6,0.5-0.9,1.3-1.2,2l-11,41c-0.3,1.3-0.2,2.4,0.3,3.6
		c0.7,1.2,1.5,1.9,2.8,2.4c1.2,0.4,2.4,0.4,3.7-0.1l38.5-16c0.7-0.2,1.2-0.7,1.8-1.2l66.5-74.6c0.9-1,1.3-2.2,1.2-3.6
		c0-1.4-0.5-2.5-1.6-3.4l-27.5-24.5C480.3,37.8,479.1,37.4,477.7,37.5z M478.4,49.6l20,17.8L436,137.3L407.9,149l8-30L478.4,49.6z"
		/>
	<path class="st0" d="M498.4,67.4l-20-17.8L415.9,119l-8,30l28.1-11.7L498.4,67.4z"/>
	<path class="st2" d="M3.5,13.5C1.1,17.8,0,23.3,0,30v140c0,20,10,30,30,30h265.8V0H30c-6.6,0-12.1,1.2-16.5,3.5
		C8.8,5.8,5.5,9.2,3.5,13.5z M151.2,74.5l0.1,0.1c13.6,12,27.1,24.2,40.5,36.6c0.8,0.6,1.3,1.5,1.5,2.5s0.1,2-0.2,3
		c-0.4,0.9-1,1.6-1.9,2.3c-0.9,0.5-1.8,0.8-2.8,0.8h-48.5l-28.4,39.4c-0.7,0.9-1.5,1.5-2.5,1.8c-1.1,0.4-2.1,0.4-3.2,0
		c-1-0.3-1.8-0.9-2.5-1.8c-0.6-0.8-0.9-1.8-0.9-2.9V43.8c0-2.7,1.3-4.4,3.8-4.9c0.6-0.3,1.6-0.3,3,0.2c0.3,0,0.9,0.2,1.5,0.7
		c0.5,0.3,1.3,0.9,2.3,1.6c1.8,1.4,4.3,3.5,7.8,6.5C127.6,53.7,137.7,62.5,151.2,74.5z"/>
	<path class="st2" d="M144.6,82c-13.4-11.9-23.5-20.8-30.3-26.5c-0.6-0.6-1.3-1.1-1.9-1.6v87l20.9-29c0.5-0.7,1.1-1.2,1.9-1.6
		c0.6-0.3,1.4-0.5,2.2-0.5h38.2C165.3,100.5,155.1,91.2,144.6,82z"/>
</g>
</svg>
