<?xml version="1.0" encoding="utf-8"?>
<!-- Generator: Adobe Illustrator 24.3.0, SVG Export Plug-In . SVG Version: 6.00 Build 0)  -->
<svg version="1.1" id="图层_1" xmlns="http://www.w3.org/2000/svg" xmlns:xlink="http://www.w3.org/1999/xlink" x="0px" y="0px"
	 viewBox="0 0 600 200" style="enable-background:new 0 0 600 200;" xml:space="preserve">
<style type="text/css">
	.st0{fill:#878787;}
	.st1{fill:#4A4A4A;}
	.st2{fill:#FFFFFF;}
</style>
<g>
	<path class="st0" d="M600,30c0-20-10-30-30-30H305.8v200H570c20,0,30-10,30-30V30z M477.7,37.5c1.4-0.1,2.6,0.3,3.6,1.3l27.5,24.5
		c1.1,0.9,1.6,2,1.6,3.4c0.1,1.4-0.3,2.6-1.2,3.6l-66.5,74.6c-0.6,0.5-1.1,1-1.8,1.2l-38.5,16c-1.3,0.5-2.5,0.5-3.7,0.1
		c-1.3-0.5-2.1-1.2-2.8-2.4c-0.5-1.2-0.6-2.3-0.3-3.6l11-41c0.3-0.7,0.6-1.5,1.2-2l66.5-74C475.1,38.1,476.3,37.6,477.7,37.5z"/>
	<path class="st0" d="M498.4,67.4l-20-17.8L415.9,119l-8,30l28.1-11.7L498.4,67.4z"/>
	<path class="st1" d="M13.5,3.5c-4.7,2.3-8,5.7-10,10C1.1,17.8,0,23.3,0,30v140c0,20,10,30,30,30h265.8V0H30
		C23.4,0,17.9,1.2,13.5,3.5z M151.2,74.5l0.1,0.1c13.6,12,27.1,24.2,40.5,36.6c0.8,0.6,1.3,1.5,1.5,2.5s0.1,2-0.2,3
		c-0.4,0.9-1,1.6-1.9,2.3c-0.9,0.5-1.8,0.8-2.8,0.8h-48.5l-28.4,39.4c-0.7,0.9-1.5,1.5-2.5,1.8c-1.1,0.4-2.1,0.4-3.2,0
		c-1-0.3-1.8-0.9-2.5-1.8c-0.6-0.8-0.9-1.8-0.9-2.9V43.8c0-2.7,1.3-4.4,3.8-4.9c0.6-0.3,1.6-0.3,3,0.2c0.3,0,0.9,0.2,1.5,0.7
		c0.5,0.3,1.3,0.9,2.3,1.6c1.8,1.4,4.3,3.5,7.8,6.5C127.6,53.7,137.7,62.5,151.2,74.5z"/>
	<path class="st2" d="M151.3,74.6l-0.1-0.1c-13.5-12-23.6-20.8-30.4-26.6c-3.5-3-6-5.1-7.8-6.5c-1-0.7-1.8-1.3-2.3-1.6
		c-0.6-0.5-1.2-0.7-1.5-0.7c-1.4-0.5-2.4-0.5-3-0.2c-2.5,0.5-3.8,2.2-3.8,4.9v112.5c0,1.1,0.3,2.1,0.9,2.9c0.7,0.9,1.5,1.5,2.5,1.8
		c1.1,0.4,2.1,0.4,3.2,0c1-0.3,1.8-0.9,2.5-1.8l28.4-39.4h48.5c1,0,1.9-0.3,2.8-0.8c0.9-0.7,1.5-1.4,1.9-2.3c0.3-1,0.4-2,0.2-3
		s-0.7-1.9-1.5-2.5C178.4,98.8,164.9,86.6,151.3,74.6z M144.6,82c10.5,9.2,20.7,18.5,31,27.8h-38.2c-0.8,0-1.6,0.2-2.2,0.5
		c-0.8,0.4-1.4,0.9-1.9,1.6l-20.9,29v-87c0.6,0.5,1.3,1,1.9,1.6C121.1,61.2,131.2,70.1,144.6,82z"/>
	<path class="st1" d="M144.6,82c-13.4-11.9-23.5-20.8-30.3-26.5c-0.6-0.6-1.3-1.1-1.9-1.6v87l20.9-29c0.5-0.7,1.1-1.2,1.9-1.6
		c0.6-0.3,1.4-0.5,2.2-0.5h38.2C165.3,100.5,155.1,91.2,144.6,82z"/>
</g>
</svg>
