<?xml version="1.0" encoding="utf-8"?>
<!-- Generator: Adobe Illustrator 24.3.0, SVG Export Plug-In . SVG Version: 6.00 Build 0)  -->
<svg version="1.1" id="图层_1" xmlns="http://www.w3.org/2000/svg" xmlns:xlink="http://www.w3.org/1999/xlink" x="0px" y="0px"
	 viewBox="0 0 295 200" style="enable-background:new 0 0 295 200;" xml:space="preserve">
<style type="text/css">
	.st0{fill:#878787;}
</style>
<g>
	<path class="st0" d="M295,200V0H29.9c-6.6,0-12.1,1.2-16.5,3.5c-4.6,2.3-7.9,5.7-9.9,10C1.1,17.8,0,23.3,0,30v140
		c0,20,10,30,29.9,30H295z M218.9,43c1.9-0.8,3.9-0.7,5.8,0.2c1.8,0.9,3.1,2.2,3.9,4.2c0.7,1.9,0.6,3.8-0.3,5.8l-11.5,25
		c-0.1,0.2-0.3,0.5-0.5,0.8c-9.5,14.9-20.6,24-33.3,27.2c-0.1,0-0.1,0-0.2,0.1c-3.2,0.8-6.5,1.2-9.8,1.2h-50.5
		c-2.2,0-4.2,0.2-5.9,0.7c-0.1,0-0.1,0-0.1,0c-9.5,2.8-17.8,9.5-24.9,20.5l-11.3,24.4c-0.8,1.9-2.3,3.2-4.2,3.9s-3.8,0.6-5.7-0.2
		s-3.2-2.3-3.9-4.2c-0.7-2-0.7-3.9,0.2-5.7l11.5-25c0.1-0.4,0.3-0.7,0.5-0.9c9.5-14.9,20.8-24,33.9-27.3c2.9-0.8,6.2-1.2,9.9-1.2
		H173c2.1,0,4.2-0.3,6.2-0.8c9.1-2.7,17.2-9.5,24.2-20.4l11.3-24.4C215.6,45,216.9,43.7,218.9,43z"/>
</g>
</svg>
