<?xml version="1.0" encoding="utf-8"?>
<!-- Generator: Adobe Illustrator 24.3.0, SVG Export Plug-In . SVG Version: 6.00 Build 0)  -->
<svg version="1.1" id="图层_1" xmlns="http://www.w3.org/2000/svg" xmlns:xlink="http://www.w3.org/1999/xlink" x="0px" y="0px"
	 viewBox="0 0 295 200" style="enable-background:new 0 0 295 200;" xml:space="preserve">
<style type="text/css">
	.st0{fill:#4A4A4A;}
	.st1{fill:#FFFFFF;}
</style>
<g>
	<path class="st0" d="M295,30c0-20-10-30-29.9-30H0v200h265.1c6.6,0,12.1-1.1,16.5-3.5c4.6-2.3,7.9-5.7,9.9-10
		c2.4-4.4,3.5-9.9,3.5-16.5V30z M157.3,73.5L157.3,73.5c3.7-6.1,9.5-9.2,17.5-9.1c7.6,0,13.4,3,17.1,9.2c3.5,5.8,5.4,14.6,5.4,26.4
		c-0.1,11.4-2,20.1-5.6,26.1c-3.9,6.4-9.7,9.5-17.3,9.6c-7.5-0.1-13.1-3.2-16.9-9.4c-3.7-5.8-5.6-14.6-5.6-26.3
		C151.9,88.2,153.8,79.3,157.3,73.5z M233.2,55.6c0.4-0.4,0.7-0.5,1.1-0.5h5.5c0.4,0,0.8,0.1,1.1,0.5c0.4,0.3,0.5,0.6,0.5,1.1v86.7
		c0,0.4-0.1,0.7-0.5,1.1c-0.3,0.4-0.7,0.5-1.1,0.5h-5.5c-0.4,0-0.7-0.1-1.1-0.5c-0.4-0.4-0.5-0.7-0.4-1.1V56.7
		C232.7,56.2,232.8,55.9,233.2,55.6z M54,55.6c0.4-0.4,0.8-0.5,1.2-0.5h5.4c0.4,0,0.8,0.1,1.2,0.5c0.3,0.3,0.5,0.6,0.5,1.1v86.7
		c0,0.4-0.2,0.7-0.5,1.1c-0.4,0.4-0.8,0.5-1.2,0.5h-5.4c-0.4,0-0.8-0.1-1.2-0.5c-0.3-0.4-0.5-0.7-0.4-1.1V56.7
		C53.5,56.2,53.7,55.9,54,55.6z M138.7,92.8c-2.2,2.6-5.3,4.4-9.3,5.4c5,0.5,9,2.3,12,5.2c2.9,2.9,4.4,6.6,4.4,11.1
		c0,5.8-2.1,10.4-6.2,13.7c-4.2,3.2-10,4.8-17.4,4.8H104V66.9h15.3c15.1,0,22.6,5.3,22.6,16C141.9,86.8,140.8,90.2,138.7,92.8z"/>
	<path class="st1" d="M157.3,73.5L157.3,73.5c-3.5,5.8-5.4,14.7-5.4,26.5c0,11.7,1.9,20.5,5.6,26.3c3.8,6.2,9.4,9.3,16.9,9.4
		c7.6-0.1,13.4-3.2,17.3-9.6c3.6-6,5.5-14.7,5.6-26.1c0-11.8-1.9-20.6-5.4-26.4c-3.7-6.2-9.5-9.2-17.1-9.2
		C166.8,64.3,161,67.4,157.3,73.5z M184.7,78.7c2.2,4.5,3.3,11.5,3.3,21.3c0,9.2-1.2,16.2-3.5,21l0,0c-2.2,4.2-5.5,6.3-9.9,6.3
		c-4.5,0-7.8-2.1-10-6.1c-2.3-4.7-3.4-11.7-3.4-21.2c0-9.8,1.1-16.8,3.3-21.3c2.1-4,5.5-6.1,10.3-6
		C179.3,72.7,182.7,74.7,184.7,78.7z"/>
	<path class="st0" d="M184.7,78.7c-2-4-5.4-6-9.9-6c-4.8-0.1-8.2,2-10.3,6c-2.2,4.5-3.3,11.5-3.3,21.3c0,9.5,1.1,16.5,3.4,21.2
		c2.2,4,5.5,6.1,10,6.1c4.4,0,7.7-2.1,9.9-6.3l0,0c2.3-4.8,3.5-11.8,3.5-21C188,90.2,186.9,83.2,184.7,78.7z"/>
	<path class="st1" d="M234.3,55.1c-0.4,0-0.7,0.1-1.1,0.5c-0.4,0.3-0.5,0.6-0.4,1.1v86.7c-0.1,0.4,0,0.7,0.4,1.1
		c0.4,0.4,0.7,0.5,1.1,0.5h5.5c0.4,0,0.8-0.1,1.1-0.5c0.4-0.4,0.5-0.7,0.5-1.1V56.7c0-0.5-0.1-0.8-0.5-1.1c-0.3-0.4-0.7-0.5-1.1-0.5
		H234.3z"/>
	<path class="st1" d="M55.2,55.1c-0.4,0-0.8,0.1-1.2,0.5c-0.3,0.3-0.5,0.6-0.4,1.1v86.7c-0.1,0.4,0.1,0.7,0.4,1.1
		c0.4,0.4,0.8,0.5,1.2,0.5h5.4c0.4,0,0.8-0.1,1.2-0.5c0.3-0.4,0.5-0.7,0.5-1.1V56.7c0-0.5-0.2-0.8-0.5-1.1c-0.4-0.4-0.8-0.5-1.2-0.5
		H55.2z"/>
	<path class="st1" d="M129.4,98.2c4-1,7.1-2.8,9.3-5.4c2.1-2.6,3.2-6,3.2-9.9c0-10.7-7.5-16-22.6-16H104V133h18.2
		c7.4,0,13.2-1.6,17.4-4.8c4.1-3.3,6.2-7.9,6.2-13.7c0-4.5-1.5-8.2-4.4-11.1C138.4,100.5,134.4,98.7,129.4,98.2z M112,73.7h7.2
		c5,0,8.9,0.8,11.4,2.5c2.2,1.5,3.3,4,3.3,7.3c0,3.5-1.1,6.2-3.4,8l-0.1,0.1c-2.6,1.8-6.3,2.8-11.1,2.8H112V73.7z M137.8,114.2
		c0,3.8-1.4,6.8-4,9c-2.9,2.1-7,3.1-12.6,3.2H112v-23.8h8.5c5.7,0,10.1,1,13.2,3.1C136.4,107.6,137.8,110.5,137.8,114.2z"/>
	<path class="st0" d="M119.2,73.7H112v20.7h7.3c4.8,0,8.5-1,11.1-2.8l0.1-0.1c2.3-1.8,3.4-4.5,3.4-8c0-3.3-1.1-5.8-3.3-7.3
		C128.1,74.5,124.2,73.7,119.2,73.7z"/>
	<path class="st0" d="M133.8,123.2c2.6-2.2,4-5.2,4-9c0-3.7-1.4-6.6-4.1-8.5c-3.1-2.1-7.5-3.1-13.2-3.1H112v23.8h9.2
		C126.8,126.3,130.9,125.3,133.8,123.2z"/>
</g>
</svg>
