<?xml version="1.0" encoding="utf-8"?>
<!-- Generator: Adobe Illustrator 24.3.0, SVG Export Plug-In . SVG Version: 6.00 Build 0)  -->
<svg version="1.1" id="图层_1" xmlns="http://www.w3.org/2000/svg" xmlns:xlink="http://www.w3.org/1999/xlink" x="0px" y="0px"
	 viewBox="0 0 295 200" style="enable-background:new 0 0 295 200;" xml:space="preserve">
<style type="text/css">
	.st0{fill:#4A4A4A;}
	.st1{fill:#FFFFFF;}
</style>
<g>
	<path class="st0" d="M0,200h295V0H0V200z M153.3,82.8c1.5,5.7,2,11.3,1.7,16.9c0,0.1,0,0.1,0,0.1v0.4c0,0.2,0,0.4,0,0.5
		c-0.3,4.2,0.1,8.4,1.3,12.5c0,0.1,0,0.1,0,0.1c1.8,6.5,5,10,9.7,10.4c6.3-0.9,16.7-12.6,31.2-35l22.4-37.8c1-1.7,2.6-2.9,4.6-3.4
		c1.9-0.6,3.8-0.3,5.6,0.8c1.8,1,3,2.6,3.5,4.6s0.2,3.9-0.9,5.7l-22.5,38c0,0.1-0.1,0.1-0.1,0.2c-18.8,29-33.4,42.9-43.8,41.9
		c-12,0.5-20.1-6.7-24.2-21.4v-0.1c-1.5-5.7-2.1-11.3-1.8-17v-0.5c0-0.1,0-0.3,0.1-0.5c0.2-4.1-0.2-8.3-1.3-12.4c0-0.1,0-0.1,0-0.1
		c-1.9-6.5-5.1-10-9.8-10.5c-6.2,1-16.7,12.7-31.2,35.1l-22.3,37.8c-1.1,1.8-2.7,2.9-4.6,3.4c-2,0.5-3.9,0.2-5.7-0.8
		c-1.8-1.1-2.9-2.6-3.4-4.6c-0.6-2-0.3-3.9,0.7-5.6l22.5-38c0.1-0.2,0.2-0.3,0.2-0.3c18.8-29,33.4-43,43.8-42
		c12-0.4,20.1,6.7,24.3,21.5V82.8z"/>
	<path class="st1" d="M155,99.7c0.3-5.6-0.2-11.2-1.7-16.9v-0.1C149.1,67.9,141,60.8,129,61.2c-10.4-1-25,13-43.8,42
		c0,0-0.1,0.1-0.2,0.3l-22.5,38c-1,1.7-1.3,3.6-0.7,5.6c0.5,2,1.6,3.5,3.4,4.6c1.8,1,3.7,1.3,5.7,0.8c1.9-0.5,3.5-1.6,4.6-3.4
		l22.3-37.8c14.5-22.4,25-34.1,31.2-35.1c4.7,0.5,7.9,4,9.8,10.5c0,0,0,0,0,0.1c1.1,4.1,1.5,8.3,1.3,12.4c-0.1,0.2-0.1,0.4-0.1,0.5
		v0.5c-0.3,5.7,0.3,11.3,1.8,17v0.1c4.1,14.7,12.2,21.9,24.2,21.4c10.4,1,25-12.9,43.8-41.9c0-0.1,0.1-0.1,0.1-0.2l22.5-38
		c1.1-1.8,1.4-3.7,0.9-5.7s-1.7-3.6-3.5-4.6c-1.8-1.1-3.7-1.4-5.6-0.8c-2,0.5-3.6,1.7-4.6,3.4l-22.4,37.8
		c-14.5,22.4-24.9,34.1-31.2,35c-4.7-0.4-7.9-3.9-9.7-10.4c0,0,0,0,0-0.1c-1.2-4.1-1.6-8.3-1.3-12.5c0-0.1,0-0.3,0-0.5v-0.4
		C155,99.8,155,99.8,155,99.7z"/>
</g>
</svg>
