<?xml version="1.0" encoding="utf-8"?>
<!-- Generator: Adobe Illustrator 24.3.0, SVG Export Plug-In . SVG Version: 6.00 Build 0)  -->
<svg version="1.1" id="图层_1" xmlns="http://www.w3.org/2000/svg" xmlns:xlink="http://www.w3.org/1999/xlink" x="0px" y="0px"
	 viewBox="0 0 600 200" style="enable-background:new 0 0 600 200;" xml:space="preserve">
<style type="text/css">
	.st0{fill:#4A4A4A;}
	.st1{fill:#FFFFFF;}
	.st2{fill:#878787;}
</style>
<g>
	<path class="st0" d="M599.7,30c0-20-10-30-30-30H305.4v200h264.3c20,0,30-10,30-30V30z M510.3,48c3.3-3,7.3-4.5,11.9-4.5
		c4.7,0,8.5,1.5,11.5,4.5c3.4,3.3,5,7.3,5,12s-1.6,8.5-5,11.5c-3,3.3-6.8,5-11.5,5c-0.8,0-1.6-0.1-2.5-0.2c-0.3,0.8-0.7,1.4-1.2,2.1
		L474,129.9c-1.2,1.3-2.6,2.1-4.2,2.4c-1.7,0.4-3.3,0.2-4.9-0.6c-1.6-0.7-2.6-1.9-3.4-3.5l-25.3-52.7l-42.1,43.7
		c-0.5,0.5-0.8,0.8-1.3,1.1c0.6,1.8,0.9,3.7,0.9,5.7c0,4.7-1.6,8.5-5,11.5c-3,3.4-6.9,5-11.5,5c-4.6,0-8.6-1.6-12-5
		c-3-3-4.5-6.8-4.5-11.5s1.5-8.7,4.5-12c3.4-3,7.4-4.5,12-4.5c1.8,0,3.5,0.2,5.1,0.7c0.3-0.5,0.6-1,1-1.4l49.5-51.5
		c1.2-1.2,2.6-2,4.3-2.2c1.6-0.3,3.2,0,4.6,0.7c1.4,0.8,2.6,1.9,3.3,3.4l25.1,52.3l37-42.9c0.2-0.2,0.4-0.4,0.5-0.5
		c-1.2-2.4-1.8-5-1.8-8.1C505.8,55.3,507.3,51.3,510.3,48z"/>
	<path class="st1" d="M522.2,43.5c-4.6,0-8.6,1.5-11.9,4.5c-3,3.3-4.5,7.3-4.5,12c0,3.1,0.6,5.7,1.8,8.1c-0.1,0.1-0.3,0.3-0.5,0.5
		l-37,42.9L445,59.2c-0.7-1.5-1.9-2.6-3.3-3.4c-1.4-0.7-3-1-4.6-0.7c-1.7,0.2-3.1,1-4.3,2.2l-49.5,51.5c-0.4,0.4-0.7,0.9-1,1.4
		c-1.6-0.5-3.3-0.7-5.1-0.7c-4.6,0-8.6,1.5-12,4.5c-3,3.3-4.5,7.3-4.5,12s1.5,8.5,4.5,11.5c3.4,3.4,7.4,5,12,5c4.6,0,8.5-1.6,11.5-5
		c3.4-3,5-6.8,5-11.5c0-2-0.3-3.9-0.9-5.7c0.5-0.3,0.8-0.6,1.3-1.1l42.1-43.7l25.3,52.7c0.8,1.6,1.8,2.8,3.4,3.5
		c1.6,0.8,3.2,1,4.9,0.6c1.6-0.3,3-1.1,4.2-2.4l44.5-51.5c0.5-0.7,0.9-1.3,1.2-2.1c0.9,0.1,1.7,0.2,2.5,0.2c4.7,0,8.5-1.7,11.5-5
		c3.4-3,5-6.8,5-11.5s-1.6-8.7-5-12C530.7,45,526.9,43.5,522.2,43.5z"/>
	<path class="st2" d="M13.2,3.5c-0.9,0.4-1.7,0.9-2.6,1.4C7.3,7.2,4.8,10,3.2,13.5C0.8,17.8-0.3,23.3-0.3,30v140
		c0,12.1,3.6,20.5,10.9,25.3c4.8,3.1,11.2,4.7,19.1,4.7h265.8V0H29.7C23.1,0,17.6,1.2,13.2,3.5z M234.7,43.5v25h-90v-25H234.7z
		 M154.7,121.5v25h-90v-25H154.7z M184.7,82.5v25h-70v-25H184.7z"/>
</g>
</svg>
