<?xml version="1.0" encoding="utf-8"?>
<!-- Generator: Adobe Illustrator 24.3.0, SVG Export Plug-In . SVG Version: 6.00 Build 0)  -->
<svg version="1.1" id="图层_1" xmlns="http://www.w3.org/2000/svg" xmlns:xlink="http://www.w3.org/1999/xlink" x="0px" y="0px"
	 viewBox="0 0 600 200" style="enable-background:new 0 0 600 200;" xml:space="preserve">
<style type="text/css">
	.st0{fill:#878787;}
	.st1{fill:#4A4A4A;}
	.st2{fill:#FFFFFF;}
</style>
<g>
	<path class="st0" d="M599.95,26.3C598.65,8.8,588.75,0,570.05,0h-264.3v200h264.3c18.7,0,28.6-8.8,29.9-26.4V26.3z M522.55,43.5
		c4.7,0,8.5,1.5,11.5,4.5c3.4,3.3,5,7.3,5,12s-1.6,8.5-5,11.5c-3,3.3-6.8,5-11.5,5l-2.5-0.2l-1.2,2.1l-44.5,51.5
		c-1.2,1.3-2.6,2.1-4.2,2.4c-1.7,0.4-3.3,0.2-4.9-0.6c-1.6-0.7-2.6-1.9-3.4-3.5l-25.3-52.7l-42.1,43.7l-1.3,1.1
		c0.6,1.8,0.9,3.7,0.9,5.7c0,4.7-1.6,8.5-5,11.5c-3,3.4-6.9,5-11.5,5c-4.6,0-8.6-1.6-12-5c-3-3-4.5-6.8-4.5-11.5s1.5-8.7,4.5-12
		c3.4-3,7.4-4.5,12-4.5c1.8,0,3.5,0.2,5.1,0.7l1-1.4l49.5-51.5c1.2-1.2,2.6-2,4.3-2.2c1.6-0.3,3.2,0,4.6,0.7
		c1.4,0.8,2.6,1.9,3.3,3.4l25.1,52.3l37-42.9l0.5-0.5c-1.2-2.4-1.8-5-1.8-8.1c0-4.7,1.5-8.7,4.5-12
		C513.95,45,517.95,43.5,522.55,43.5z"/>
	<path class="st1" d="M3.55,13.5c-2.4,4.3-3.5,9.8-3.5,16.5v140c0,20,10,30,30,30h265.8V0H30.05c-6.6,0-12.1,1.2-16.5,3.5
		C8.85,5.8,5.55,9.2,3.55,13.5z M235.05,43.5v25h-90v-25H235.05z M155.05,121.5v25h-90v-25H155.05z M185.05,82.5v25h-70v-25H185.05z
		"/>
	<path class="st2" d="M235.05,68.5v-25h-90v25H235.05z"/>
	<path class="st2" d="M155.05,146.5v-25h-90v25H155.05z"/>
	<path class="st2" d="M185.05,107.5v-25h-70v25H185.05z"/>
</g>
</svg>
