<?xml version="1.0" encoding="utf-8"?>
<!-- Generator: Adobe Illustrator 24.3.0, SVG Export Plug-In . SVG Version: 6.00 Build 0)  -->
<svg version="1.1" id="图层_1" xmlns="http://www.w3.org/2000/svg" xmlns:xlink="http://www.w3.org/1999/xlink" x="0px" y="0px"
	 viewBox="0 0 106 106" style="enable-background:new 0 0 106 106;" xml:space="preserve">
<style type="text/css">
	.st0{fill:#E60212;}
	.st1{fill:#FFFFFF;}
	.st2{fill:#E60012;}
</style>
<g>
	<path class="st0" d="M90.5,15.5C80.2,5.1,67.7,0,53,0C38.4,0,25.9,5.1,15.5,15.5C5.2,25.8,0,38.3,0,52.9c0,14.7,5.2,27.2,15.5,37.5
		c4.9,5,10.4,8.7,16.3,11.3c6.5,2.8,13.6,4.3,21.2,4.3s14.7-1.5,21.2-4.3c5.9-2.6,11.3-6.3,16.3-11.3C100.8,80.1,106,67.6,106,52.9
		C106,38.3,100.8,25.8,90.5,15.5z M53,6c13,0,24,4.5,33.3,13.7C95.4,28.8,100,40,100,52.9c0,13-4.6,24.1-13.7,33.3
		c-4.5,4.3-9.3,7.7-14.5,10C66,98.7,59.8,100,53,100s-13-1.3-18.8-3.8c-5.3-2.3-10.1-5.7-14.4-10C10.6,77,6,65.9,6,52.9
		C6,40,10.6,28.8,19.8,19.7C28.9,10.5,40,6,53,6z"/>
	<path class="st1" d="M86.3,19.7C77,10.5,66,6,53,6s-24.1,4.5-33.2,13.7C10.6,28.8,6,40,6,52.9c0,13,4.6,24.1,13.8,33.3
		c4.3,4.3,9.1,7.7,14.4,10c5.8,2.5,12,3.8,18.8,3.8s13-1.3,18.8-3.8c5.2-2.3,10-5.7,14.5-10C95.4,77,100,65.9,100,52.9
		C100,40,95.4,28.8,86.3,19.7z"/>
</g>
<g>
	<path class="st2" d="M71.8,30.3C70,27.5,67.3,25.5,64,24c-3.5-1.5-7.4-2.2-11.9-2.2c-4,0-7.7,0.7-11,2.1c-3.3,1.4-5.8,3.4-7.6,6.1
		c-1.7,2.5-2.6,5.3-2.6,8.4c0,2.7,0.7,5.3,2.2,7.5c1.4,2.3,3.5,4.1,6.4,5.6c2.2,1.2,6,2.4,11.6,3.8c5.5,1.3,9.1,2.2,10.7,2.9
		c2.5,1,4.4,2.1,5.5,3.6c1,1.4,1.5,3,1.5,4.9c0,1.8-0.5,3.6-1.6,5.1c-1.2,1.6-2.9,2.9-5.2,3.7c-2.4,0.9-5,1.4-8,1.4
		c-3.5,0-6.5-0.6-9.3-1.7c-2.7-1.3-4.7-2.9-6-4.8S36.5,66,36.2,63l-7.6,0.7c0.2,4,1.3,7.6,3.4,10.8c2,3.2,5,5.5,8.6,7.2
		c3.7,1.5,8.3,2.3,13.7,2.3c4.3,0,8.2-0.8,11.6-2.3c3.4-1.6,6.1-3.8,7.9-6.6c1.9-2.8,2.7-5.9,2.7-9.1c0-3.2-0.8-6.1-2.5-8.5
		c-1.6-2.5-4.2-4.6-7.7-6.2c-2.4-1-6.8-2.4-13.3-3.8c-6.5-1.5-10.5-2.9-12-4.3c-1.5-1.4-2.4-3.2-2.4-5.3c0-2.5,1.2-4.6,3.4-6.4
		c2.1-1.7,5.6-2.7,10.5-2.7c4.6,0,8.1,1,10.5,3c2.3,1.9,3.7,4.8,4.1,8.6l7.7-0.6C74.6,36.3,73.7,33.1,71.8,30.3z"/>
</g>
</svg>
