<?xml version="1.0" encoding="utf-8"?>
<!-- Generator: Adobe Illustrator 24.3.0, SVG Export Plug-In . SVG Version: 6.00 Build 0)  -->
<svg version="1.1" id="图层_1" xmlns="http://www.w3.org/2000/svg" xmlns:xlink="http://www.w3.org/1999/xlink" x="0px" y="0px"
	 viewBox="0 0 295 200" style="enable-background:new 0 0 295 200;" xml:space="preserve">
<style type="text/css">
	.st0{fill:#4A4A4A;}
	.st1{fill:#FFFFFF;}
</style>
<g>
	<path class="st0" d="M265.1,200c6.6,0,12.1-1.2,16.5-3.5c4.6-2.3,7.9-5.7,9.9-10c2.4-4.3,3.5-9.8,3.5-16.5V30c0-20-10-30-29.9-30H0
		v200H265.1z"/>
	<path class="st1" d="M203.7,137.7c3.1-7.5,4.7-15.4,4.7-23.7h-18.7c0,5.8-1.1,11.2-3.4,16.5c-2.1,5-5.1,9.5-9,13.4s-8.3,6.9-13.4,9
		c-5.2,2.2-10.6,3.3-16.4,3.3c-5.7,0-11.2-1.1-16.4-3.3c-5-2.1-9.5-5.1-13.4-9s-6.9-8.4-9-13.4c-2.3-5.3-3.4-10.7-3.4-16.5
		c0-5.7,1.1-11.1,3.4-16.3c2.1-5.1,5.1-9.6,9-13.5s8.4-6.9,13.4-9c5.2-2.2,10.7-3.3,16.4-3.3V100l46.9-37.5L147.6,25v28.2
		c-8.2,0-16.1,1.5-23.7,4.7c-7.2,3.2-13.7,7.5-19.3,13.1c-5.7,5.7-10,12.1-13.2,19.4c-3.1,7.5-4.8,15.4-4.8,23.6
		c0,8.3,1.7,16.2,4.8,23.7c3.2,7.3,7.5,13.8,13.2,19.4c5.6,5.6,12.1,10,19.3,13.1c7.6,3.2,15.5,4.8,23.7,4.8
		c8.3,0,16.2-1.6,23.7-4.8c7.2-3.1,13.7-7.5,19.4-13.1C196.2,151.5,200.6,145,203.7,137.7z"/>
</g>
</svg>
