<?xml version="1.0" encoding="utf-8"?>
<!-- Generator: Adobe Illustrator 24.3.0, SVG Export Plug-In . SVG Version: 6.00 Build 0)  -->
<svg version="1.1" id="图层_1" xmlns="http://www.w3.org/2000/svg" xmlns:xlink="http://www.w3.org/1999/xlink" x="0px" y="0px"
	 viewBox="0 0 295 200" style="enable-background:new 0 0 295 200;" xml:space="preserve">
<style type="text/css">
	.st0{fill:#4A4A4A;}
	.st1{fill:#FFFFFF;}
</style>
<g>
	<path class="st0" d="M295,200V0H0v200H295z"/>
</g>
<g>
	<path class="st1" d="M41.4,79.6h9.6V148h-9.6V79.6z M55.2,126.7c-2.3-1.5-3.9-3.5-5-6.2l0.7-10.2c0,2.1,0.4,3.9,1.1,5.3
		s1.8,2.6,3.3,3.4c1.4,0.8,3.1,1.2,5.2,1.2c3.2,0,5.6-1,7.3-2.9s2.6-4.6,2.6-8.1V98.7c0-3.6-0.9-6.3-2.6-8.3s-4.2-3-7.3-3
		c-2,0-3.8,0.4-5.2,1.1c-1.4,0.8-2.5,1.9-3.3,3.3s-1.1,3.2-1.1,5.2l-1-9.4c1.5-2.8,3.4-5,5.8-6.6c2.4-1.5,5-2.3,7.9-2.3
		c3.4,0,6.4,0.8,8.8,2.3c2.5,1.5,4.3,3.8,5.6,6.8c1.3,3,1.9,6.5,1.9,10.7v10.6c0,4.1-0.7,7.7-2,10.6s-3.2,5.2-5.8,6.7
		s-5.6,2.3-9.1,2.3C60.1,128.9,57.5,128.2,55.2,126.7z"/>
	<path class="st1" d="M109.6,128.2H100V70.5l-9.7,6v-9.9l9.7-6.5h9.6V128.2z"/>
	<path class="st1" d="M126.7,141.2h-9.1L149.2,52h9.1L126.7,141.2z"/>
	<path class="st1" d="M161.8,79.6h9.6V148h-9.6V79.6z M175.7,126.7c-2.3-1.5-3.9-3.5-5-6.2l0.7-10.2c0,2.1,0.4,3.9,1.1,5.3
		s1.8,2.6,3.3,3.4s3.1,1.2,5.2,1.2c3.2,0,5.6-1,7.3-2.9s2.6-4.6,2.6-8.1V98.7c0-3.6-0.9-6.3-2.6-8.3s-4.2-3-7.3-3
		c-2,0-3.8,0.4-5.2,1.1s-2.5,1.9-3.3,3.3s-1.1,3.2-1.1,5.2l-1-9.4c1.5-2.8,3.4-5,5.8-6.6s5-2.3,7.9-2.3c3.4,0,6.4,0.8,8.8,2.3
		s4.3,3.8,5.6,6.8c1.3,3,1.9,6.5,1.9,10.7v10.6c0,4.1-0.7,7.7-2,10.6s-3.2,5.2-5.8,6.7s-5.6,2.3-9.1,2.3
		C180.6,128.9,177.9,128.2,175.7,126.7z"/>
	<path class="st1" d="M212.6,109.5l22.9-49.4h9.8L223,108.9h33.4v8.9h-43.8V109.5z M242,88.1h9.3v40.1H242V88.1z"/>
</g>
</svg>
