<?xml version="1.0" encoding="utf-8"?>
<!-- Generator: Adobe Illustrator 24.3.0, SVG Export Plug-In . SVG Version: 6.00 Build 0)  -->
<svg version="1.1" id="图层_1" xmlns="http://www.w3.org/2000/svg" xmlns:xlink="http://www.w3.org/1999/xlink" x="0px" y="0px"
	 viewBox="0 0 295 200" style="enable-background:new 0 0 295 200;" xml:space="preserve">
<style type="text/css">
	.st0{fill:#878787;}
</style>
<g>
	<g>
		<path class="st0" d="M0,200h295V0H0V200z M171.3,86.1c1.4-2.1,3-3.7,4.9-4.9c2.3-1.5,4.9-2.3,7.9-2.3c3.4,0,6.3,0.8,8.8,2.3
			c2.4,1.5,4.3,3.8,5.6,6.8c1.3,2.8,1.9,6.4,1.9,10.7v10.6c0,4.2-0.6,7.7-2,10.6c-1.2,2.9-3.1,5.2-5.7,6.8c-2.6,1.5-5.6,2.3-9.1,2.3
			c-3,0-5.7-0.8-7.9-2.3c-1.9-1.1-3.3-2.7-4.4-4.7v26h-9.5V79.6h9.5V86.1z M212.6,117.8v-8.3l22.9-49.3h9.8L223,109h19V88.2h9.3V109
			h5.1v8.8h-5.1v10.5H242v-10.5H212.6z M100,60.1h9.6v68.1H100V70.5l-9.7,5.9v-9.8L100,60.1z M149.2,52h9.1l-31.6,89.2h-9.2
			L149.2,52z M41.4,79.6h9.5v6.5c1.3-2,2.9-3.7,4.7-4.9c2.4-1.5,5-2.3,8-2.3c3.4,0,6.4,0.8,8.9,2.3c2.4,1.5,4.3,3.8,5.5,6.8
			c1.3,3,2,6.5,2,10.7v10.6c0,4.2-0.7,7.7-2,10.6s-3.3,5.2-5.8,6.8c-2.5,1.5-5.6,2.3-9.1,2.3c-3,0-5.6-0.8-7.9-2.3
			c-1.8-1.1-3.2-2.7-4.3-4.7v26h-9.5C41.4,148,41.4,79.6,41.4,79.6z"/>
		<path class="st0" d="M175.8,88.7c-1.5,0.7-2.5,1.8-3.3,3.2c-0.7,1.4-1.1,3-1.2,4.9v14c0.1,1.9,0.5,3.6,1.2,4.9
			c0.8,1.5,1.8,2.6,3.3,3.5c1.3,0.7,3,1.1,5.1,1.1c3.2,0,5.6-1,7.4-2.8c1.7-2,2.5-4.7,2.5-8.2V98.7c0-3.5-0.8-6.3-2.5-8.3
			c-1.8-1.9-4.2-2.9-7.4-2.9C178.9,87.5,177.2,87.9,175.8,88.7z"/>
		<path class="st0" d="M52,91.9c-0.7,1.4-1,3-1.1,4.9v14c0.1,2,0.4,3.6,1.1,4.9c0.8,1.5,1.8,2.6,3.3,3.5c1.3,0.7,3.1,1.1,5.2,1.1
			c3.1,0,5.5-1,7.3-2.8c1.7-2,2.6-4.8,2.6-8.2V98.7c0-3.5-0.9-6.2-2.6-8.3c-1.8-1.9-4.2-2.9-7.3-2.9c-2,0-3.8,0.4-5.2,1.2
			C53.8,89.4,52.8,90.5,52,91.9z"/>
	</g>
</g>
</svg>
