<?xml version="1.0" encoding="utf-8"?>
<!-- Generator: Adobe Illustrator 24.3.0, SVG Export Plug-In . SVG Version: 6.00 Build 0)  -->
<svg version="1.1" id="图层_1" xmlns="http://www.w3.org/2000/svg" xmlns:xlink="http://www.w3.org/1999/xlink" x="0px" y="0px"
	 viewBox="0 0 295 200" style="enable-background:new 0 0 295 200;" xml:space="preserve">
<style type="text/css">
	.st0{fill:#4A4A4A;}
	.st1{fill:#FFFFFF;}
</style>
<g>
	<path class="st0" d="M295,200V0H29.9c-6.6,0-12.1,1.1-16.5,3.5c-4.6,2.4-7.9,5.6-9.9,10C1.1,17.9,0,23.4,0,30v140
		c0,20,10,30,29.9,30H295z"/>
</g>
<g>
	<path class="st1" d="M39.2,79.4h9.6v68.4h-9.6V79.4z M53.1,126.6c-2.3-1.5-3.9-3.5-5-6.2l0.7-10.2c0,2.1,0.4,3.9,1.1,5.3
		s1.8,2.6,3.3,3.4c1.4,0.8,3.1,1.2,5.2,1.2c3.2,0,5.6-1,7.3-2.9s2.6-4.6,2.6-8.1V98.6c0-3.6-0.9-6.3-2.6-8.3s-4.2-3-7.3-3
		c-2,0-3.8,0.4-5.2,1.1c-1.4,0.8-2.5,1.9-3.3,3.3s-1.1,3.2-1.1,5.2l-1-9.4c1.5-2.8,3.4-5,5.8-6.6c2.4-1.5,5-2.3,7.9-2.3
		c3.4,0,6.4,0.8,8.8,2.3c2.5,1.5,4.3,3.8,5.6,6.8c1.3,3,1.9,6.5,1.9,10.7v10.6c0,4.1-0.7,7.7-2,10.6s-3.2,5.2-5.8,6.7
		s-5.6,2.3-9.1,2.3C58,128.8,55.4,128,53.1,126.6z"/>
	<path class="st1" d="M88,119.8l23.8-31.7c1.4-1.8,2.4-3.7,3.2-5.6c0.8-2,1.1-3.8,1.1-5.5v-0.1c0-2.7-0.8-4.8-2.4-6.3
		s-3.9-2.3-6.8-2.3c-2.8,0-5,0.8-6.8,2.5c-1.7,1.6-2.8,4-3.1,7v0h-9.9v0c0.6-3.9,1.7-7.2,3.4-10s4-4.9,6.7-6.3
		c2.7-1.5,5.9-2.2,9.5-2.2c4.1,0,7.5,0.7,10.4,2.1c2.9,1.4,5.1,3.4,6.6,6.1c1.5,2.7,2.3,5.9,2.3,9.6v0c0,2.4-0.5,4.9-1.5,7.5
		c-1,2.6-2.4,5.2-4.2,7.6L100.7,119h25.8v9.1H88V119.8z"/>
	<path class="st1" d="M138.4,141h-9.1l31.6-89.2h9.1L138.4,141z"/>
	<path class="st1" d="M171.6,79.4h9.6v68.4h-9.6V79.4z M185.5,126.6c-2.3-1.5-3.9-3.5-5-6.2l0.7-10.2c0,2.1,0.4,3.9,1.1,5.3
		s1.8,2.6,3.3,3.4c1.4,0.8,3.1,1.2,5.2,1.2c3.2,0,5.6-1,7.3-2.9s2.6-4.6,2.6-8.1V98.6c0-3.6-0.9-6.3-2.6-8.3s-4.2-3-7.3-3
		c-2,0-3.8,0.4-5.2,1.1c-1.4,0.8-2.5,1.9-3.3,3.3s-1.1,3.2-1.1,5.2l-1-9.4c1.5-2.8,3.4-5,5.8-6.6c2.4-1.5,5-2.3,7.9-2.3
		c3.4,0,6.4,0.8,8.8,2.3c2.5,1.5,4.3,3.8,5.6,6.8c1.3,3,1.9,6.5,1.9,10.7v10.6c0,4.1-0.7,7.7-2,10.6s-3.2,5.2-5.8,6.7
		s-5.6,2.3-9.1,2.3C190.4,128.8,187.7,128,185.5,126.6z"/>
	<path class="st1" d="M229,126.7c-2.9-1.4-5.2-3.4-7-6c-1.8-2.6-2.9-5.8-3.4-9.5h9.8c0.3,1.9,0.9,3.5,1.8,4.8s2.1,2.2,3.6,2.8
		c1.5,0.6,3.2,0.9,5.2,0.9c3.2,0,5.6-0.8,7.4-2.5c1.7-1.7,2.6-4.1,2.6-7.1v-2.1c0-3.4-0.8-6-2.5-7.9c-1.7-1.9-4-2.8-7-2.8h-4.8v-9.1
		h4.8c2.7,0,4.7-0.8,6.2-2.4c1.5-1.6,2.2-3.8,2.2-6.8v-2.1c0-2.7-0.8-4.8-2.3-6.2c-1.5-1.5-3.7-2.2-6.6-2.2c-1.6,0-3.1,0.3-4.4,0.9
		c-1.3,0.6-2.4,1.5-3.3,2.8s-1.5,2.9-1.9,4.8h-9.7c0.6-3.7,1.8-6.9,3.5-9.6c1.7-2.7,3.9-4.7,6.6-6c2.7-1.4,5.7-2.1,9.1-2.1
		c5.9,0,10.4,1.5,13.6,4.6c3.2,3.1,4.8,7.5,4.8,13.1V78c0,3.4-0.9,6.4-2.8,8.9c-1.8,2.5-4.5,4.4-7.8,5.5c3.7,0.8,6.6,2.6,8.6,5.5
		c2,2.8,3.1,6.5,3.1,10.9v1.1c0,4-0.8,7.4-2.3,10.2c-1.5,2.8-3.8,5-6.7,6.4c-2.9,1.5-6.4,2.2-10.6,2.2
		C235.3,128.8,231.9,128.1,229,126.7z"/>
</g>
</svg>
